<svg width="32" height="28" viewBox="0 0 32 28" fill="none" xmlns="http://www.w3.org/2000/svg">
<path d="M9.52728 20.2188H23.203C23.6601 20.2188 24.0585 19.8438 24.0585 19.3398C24.0585 18.8359 23.6601 18.4609 23.203 18.4609H9.7265C9.05853 18.4609 8.64838 17.9922 8.54291 17.2773L6.62103 4.23438C6.50385 3.33203 6.17572 2.875 4.98041 2.875H0.867127C0.398377 2.875 -6.10352e-05 3.28516 -6.10352e-05 3.75391C-6.10352e-05 4.23438 0.398377 4.64453 0.867127 4.64453H4.82806L6.70306 17.5117C6.94916 19.1758 7.82806 20.2188 9.52728 20.2188ZM6.36322 7.49219H18.0702C18.0116 6.95312 18.0468 6.25 18.1288 5.72266H6.36322V7.49219ZM7.37103 16.0469H23.2265C24.4452 16.0469 25.2304 15.5312 25.6757 14.5234C24.6679 14.5234 23.7187 14.3242 22.8397 13.9375C22.664 14.1719 22.4413 14.2773 22.1132 14.2773L7.37103 14.2891V16.0469ZM10.453 25.9141C11.5077 25.9141 12.3515 25.082 12.3515 24.0156C12.3515 22.9609 11.5077 22.1172 10.453 22.1172C9.38666 22.1172 8.54291 22.9609 8.54291 24.0156C8.54291 25.082 9.38666 25.9141 10.453 25.9141ZM21.4101 25.9141C22.4765 25.9141 23.3202 25.082 23.3202 24.0156C23.3202 22.9609 22.4765 22.1172 21.4101 22.1172C20.3554 22.1172 19.4999 22.9609 19.4999 24.0156C19.4999 25.082 20.3554 25.9141 21.4101 25.9141Z"/>
</svg>
