<svg width="44" height="44" viewBox="0 0 44 44" fill="none" xmlns="http://www.w3.org/2000/svg">
<rect width="44" height="44" rx="22" fill="#007AFF"/>
<path fill-rule="evenodd" clip-rule="evenodd" d="M16.8229 12.0064C16.1734 12.0064 15.5537 12.279 15.1148 12.7578L14.1146 13.8489H29.0645L28.0643 12.7578C27.6254 12.279 27.0057 12.0064 26.3562 12.0064H16.8229ZM30.8398 15.8534C30.8194 15.8546 30.7989 15.8553 30.7782 15.8553H12.3382C12.1226 16.2136 12.0064 16.6262 12.0064 17.0501V28.5697C12.0064 30.4607 13.5393 31.9936 15.4303 31.9936H27.7488C29.6398 31.9936 31.1727 30.4607 31.1727 28.5697V17.0501C31.1727 16.6255 31.0561 16.2121 30.8398 15.8534ZM11.0564 14.2184C10.3759 15.0034 10 16.0086 10 17.0501V28.5697C10 31.5688 12.4312 34 15.4303 34H27.7488C30.7479 34 33.1791 31.5688 33.1791 28.5697V17.0501C33.1791 15.9684 32.7736 14.926 32.0427 14.1286L29.5433 11.402C28.7244 10.5087 27.5681 10 26.3562 10H16.8229C15.611 10 14.4547 10.5087 13.6358 11.402L11.1364 14.1286C11.127 14.1389 11.1177 14.1491 11.1084 14.1595C11.0903 14.1784 11.073 14.1981 11.0564 14.2184ZM21.5896 18.9163C22.1436 18.9163 22.5927 19.3655 22.5927 19.9195V25.897L24.6332 23.9492C25.034 23.5667 25.669 23.5814 26.0516 23.9822C26.4341 24.383 26.4194 25.018 26.0186 25.4006L22.2822 28.9671C21.8946 29.3371 21.2845 29.3371 20.8969 28.9671L17.1605 25.4006C16.7597 25.018 16.745 24.383 17.1275 23.9822C17.5101 23.5814 18.1451 23.5667 18.5459 23.9492L20.5864 25.897V19.9195C20.5864 19.3655 21.0355 18.9163 21.5896 18.9163Z" fill="white"/>
</svg>
