<svg width="44" height="44" viewBox="0 0 44 44" fill="none" xmlns="http://www.w3.org/2000/svg">
<rect width="44" height="44" rx="22" fill="#007AFF"/>
<path fill-rule="evenodd" clip-rule="evenodd" d="M6 23.6667C6 20.5984 8.48731 18.1111 11.5556 18.1111H20.4444C23.5127 18.1111 26 20.5984 26 23.6667C26 25.5076 24.5076 27 22.6667 27H9.33333C7.49238 27 6 25.5076 6 23.6667ZM11.5556 20.3333C9.71461 20.3333 8.22222 21.8257 8.22222 23.6667C8.22222 24.2803 8.71968 24.7778 9.33333 24.7778H22.6667C23.2803 24.7778 23.7778 24.2803 23.7778 23.6667C23.7778 21.8257 22.2854 20.3333 20.4444 20.3333H11.5556Z" fill="white"/>
<path fill-rule="evenodd" clip-rule="evenodd" d="M16 9.22222C14.7727 9.22222 13.7778 10.2171 13.7778 11.4444C13.7778 12.6717 14.7727 13.6667 16 13.6667C17.2273 13.6667 18.2222 12.6717 18.2222 11.4444C18.2222 10.2171 17.2273 9.22222 16 9.22222ZM11.5556 11.4444C11.5556 8.98985 13.5454 7 16 7C18.4546 7 20.4444 8.98985 20.4444 11.4444C20.4444 13.899 18.4546 15.8889 16 15.8889C13.5454 15.8889 11.5556 13.899 11.5556 11.4444Z" fill="white"/>
<mask id="path-3-outside-1_2348_2790" maskUnits="userSpaceOnUse" x="11.0012" y="10" width="26" height="26" fill="black">
<rect fill="white" x="11.0012" y="10" width="26" height="26"/>
<path fill-rule="evenodd" clip-rule="evenodd" d="M13.0012 30.3333C13.0012 26.9583 15.7373 24.2222 19.1123 24.2222H28.8901C32.2652 24.2222 35.0012 26.9583 35.0012 30.3333C35.0012 32.3584 33.3596 34 31.3346 34H16.6679C14.6428 34 13.0012 32.3584 13.0012 30.3333ZM19.1123 26.6667C17.0873 26.6667 15.4457 28.3083 15.4457 30.3333C15.4457 31.0083 15.9929 31.5556 16.6679 31.5556H31.3346C32.0096 31.5556 32.5568 31.0083 32.5568 30.3333C32.5568 28.3083 30.9152 26.6667 28.8901 26.6667H19.1123Z"/>
<path fill-rule="evenodd" clip-rule="evenodd" d="M24.0012 14.4444C22.6512 14.4444 21.5568 15.5389 21.5568 16.8889C21.5568 18.2389 22.6512 19.3333 24.0012 19.3333C25.3512 19.3333 26.4457 18.2389 26.4457 16.8889C26.4457 15.5389 25.3512 14.4444 24.0012 14.4444ZM19.1123 16.8889C19.1123 14.1888 21.3012 12 24.0012 12C26.7013 12 28.8901 14.1888 28.8901 16.8889C28.8901 19.5889 26.7013 21.7778 24.0012 21.7778C21.3012 21.7778 19.1123 19.5889 19.1123 16.8889Z"/>
</mask>
<path fill-rule="evenodd" clip-rule="evenodd" d="M13.0012 30.3333C13.0012 26.9583 15.7373 24.2222 19.1123 24.2222H28.8901C32.2652 24.2222 35.0012 26.9583 35.0012 30.3333C35.0012 32.3584 33.3596 34 31.3346 34H16.6679C14.6428 34 13.0012 32.3584 13.0012 30.3333ZM19.1123 26.6667C17.0873 26.6667 15.4457 28.3083 15.4457 30.3333C15.4457 31.0083 15.9929 31.5556 16.6679 31.5556H31.3346C32.0096 31.5556 32.5568 31.0083 32.5568 30.3333C32.5568 28.3083 30.9152 26.6667 28.8901 26.6667H19.1123Z" fill="white"/>
<path fill-rule="evenodd" clip-rule="evenodd" d="M24.0012 14.4444C22.6512 14.4444 21.5568 15.5389 21.5568 16.8889C21.5568 18.2389 22.6512 19.3333 24.0012 19.3333C25.3512 19.3333 26.4457 18.2389 26.4457 16.8889C26.4457 15.5389 25.3512 14.4444 24.0012 14.4444ZM19.1123 16.8889C19.1123 14.1888 21.3012 12 24.0012 12C26.7013 12 28.8901 14.1888 28.8901 16.8889C28.8901 19.5889 26.7013 21.7778 24.0012 21.7778C21.3012 21.7778 19.1123 19.5889 19.1123 16.8889Z" fill="white"/>
<path d="M19.1123 24.2222V22.8472C14.9779 22.8472 11.6262 26.1989 11.6262 30.3333H13.0012H14.3762C14.3762 27.7177 16.4966 25.5972 19.1123 25.5972V24.2222ZM28.8901 24.2222V22.8472H19.1123V24.2222V25.5972H28.8901V24.2222ZM35.0012 30.3333H36.3762C36.3762 26.1989 33.0246 22.8472 28.8901 22.8472V24.2222V25.5972C31.5058 25.5972 33.6262 27.7177 33.6262 30.3333H35.0012ZM31.3346 34V35.375C34.119 35.375 36.3762 33.1178 36.3762 30.3333H35.0012H33.6262C33.6262 31.599 32.6002 32.625 31.3346 32.625V34ZM16.6679 34V35.375H31.3346V34V32.625H16.6679V34ZM13.0012 30.3333H11.6262C11.6262 33.1178 13.8835 35.375 16.6679 35.375V34V32.625C15.4022 32.625 14.3762 31.599 14.3762 30.3333H13.0012ZM15.4457 30.3333H16.8207C16.8207 29.0677 17.8467 28.0417 19.1123 28.0417V26.6667V25.2917C16.3279 25.2917 14.0707 27.5489 14.0707 30.3333H15.4457ZM16.6679 31.5556V30.1806C16.7523 30.1806 16.8207 30.249 16.8207 30.3333H15.4457H14.0707C14.0707 31.7677 15.2335 32.9306 16.6679 32.9306V31.5556ZM31.3346 31.5556V30.1806H16.6679V31.5556V32.9306H31.3346V31.5556ZM32.5568 30.3333H31.1818C31.1818 30.249 31.2502 30.1806 31.3346 30.1806V31.5556V32.9306C32.769 32.9306 33.9318 31.7677 33.9318 30.3333H32.5568ZM28.8901 26.6667V28.0417C30.1558 28.0417 31.1818 29.0677 31.1818 30.3333H32.5568H33.9318C33.9318 27.5489 31.6745 25.2917 28.8901 25.2917V26.6667ZM19.1123 26.6667V28.0417H28.8901V26.6667V25.2917H19.1123V26.6667ZM21.5568 16.8889H22.9318C22.9318 16.2983 23.4106 15.8194 24.0012 15.8194V14.4444V13.0694C21.8918 13.0694 20.1818 14.7795 20.1818 16.8889H21.5568ZM24.0012 19.3333V17.9583C23.4106 17.9583 22.9318 17.4795 22.9318 16.8889H21.5568H20.1818C20.1818 18.9983 21.8918 20.7083 24.0012 20.7083V19.3333ZM26.4457 16.8889H25.0707C25.0707 17.4795 24.5919 17.9583 24.0012 17.9583V19.3333V20.7083C26.1106 20.7083 27.8207 18.9983 27.8207 16.8889H26.4457ZM24.0012 14.4444V15.8194C24.5919 15.8194 25.0707 16.2983 25.0707 16.8889H26.4457H27.8207C27.8207 14.7795 26.1106 13.0694 24.0012 13.0694V14.4444ZM24.0012 12V10.625C20.5418 10.625 17.7373 13.4294 17.7373 16.8889H19.1123H20.4873C20.4873 14.9482 22.0606 13.375 24.0012 13.375V12ZM28.8901 16.8889H30.2651C30.2651 13.4294 27.4607 10.625 24.0012 10.625V12V13.375C25.9419 13.375 27.5151 14.9482 27.5151 16.8889H28.8901ZM24.0012 21.7778V23.1528C27.4607 23.1528 30.2651 20.3483 30.2651 16.8889H28.8901H27.5151C27.5151 18.8296 25.9419 20.4028 24.0012 20.4028V21.7778ZM19.1123 16.8889H17.7373C17.7373 20.3483 20.5418 23.1528 24.0012 23.1528V21.7778V20.4028C22.0606 20.4028 20.4873 18.8296 20.4873 16.8889H19.1123Z" fill="#007AFF" mask="url(#path-3-outside-1_2348_2790)"/>
<path d="M18.5736 26.5704C18.5736 26.2891 18.4724 26.0313 18.2699 25.7266L14.8954 20.7461C14.7182 20.5 14.5663 20.4297 14.4145 20.4297C14.2457 20.4297 14.1023 20.5 13.9251 20.7461L10.5674 25.7266C10.3481 26.0547 10.2468 26.2657 10.2468 26.5586C10.2468 26.9922 10.5084 27.3086 10.8036 27.3086H12.5331V27.4961C12.5331 32.0079 14.6001 34 17.9662 34C18.3543 34 18.5736 33.7188 18.5736 33.3672C18.5736 33.086 18.5146 32.793 18.2362 32.5821C16.7514 31.5157 16.3042 29.9454 16.3042 27.4961V27.3086H18.0337C18.3543 27.3086 18.5736 26.9922 18.5736 26.5704Z" fill="white"/>
<path d="M18.5736 26.5704C18.5736 26.3594 18.5169 26.1615 18.4031 25.9473L18.2699 25.7266L14.8954 20.7461C14.7182 20.5 14.5663 20.4297 14.4145 20.4297C14.2457 20.4297 14.1023 20.5 13.9251 20.7461L10.5674 25.7266L10.4246 25.9541C10.3037 26.1654 10.2468 26.339 10.2468 26.5586C10.2468 26.938 10.4472 27.2275 10.6951 27.2939L10.8036 27.3086H12.5331V27.4961L12.5388 27.9121C12.6593 31.9943 14.5755 33.8768 17.6541 33.9941L17.9662 34C18.3056 33.9998 18.516 33.7845 18.5632 33.4951L18.5736 33.3672C18.5736 33.1212 18.5284 32.8662 18.3308 32.665L18.2362 32.5821C16.7514 31.5157 16.3042 29.9454 16.3042 27.4961V27.3086H18.0337L18.1492 27.2939C18.369 27.237 18.5234 27.0174 18.5632 26.7236L18.5736 26.5704ZM20.074 26.5703C20.074 27.0248 19.9573 27.5346 19.6414 27.9736C19.3068 28.4383 18.7445 28.8085 18.0339 28.8086H17.866C17.9993 30.0745 18.3546 30.7532 18.9509 31.2412L19.1111 31.3633L19.1423 31.3867C19.9669 32.0116 20.074 32.8857 20.074 33.3672C20.074 33.8483 19.9219 34.3857 19.5281 34.8213C19.1164 35.2764 18.5471 35.4999 17.9666 35.5C15.9831 35.5 14.1612 34.9031 12.863 33.4326C11.8271 32.2591 11.2638 30.684 11.0916 28.8086H10.8035C9.42655 28.8085 8.82349 27.5942 8.75366 26.7266L8.74683 26.5586L8.7605 26.2881C8.82321 25.6812 9.08829 25.2393 9.32007 24.8926L9.32397 24.8877L12.6814 19.9072L12.6941 19.8887L12.7078 19.8701L12.8347 19.7051C12.975 19.5361 13.1561 19.3591 13.3904 19.2158C13.7371 19.0039 14.0946 18.9297 14.4148 18.9297L14.5603 18.9346C15.1786 18.979 15.6422 19.3035 15.9705 19.6885L16.113 19.8701L16.1248 19.8867L16.1375 19.9043L19.5115 24.8848L19.5193 24.8965L19.6267 25.0664C19.872 25.4741 20.074 25.9687 20.074 26.5703Z" fill="#007AFF"/>
</svg>
