<svg width="29" height="28" viewBox="0 0 29 28" fill="none" xmlns="http://www.w3.org/2000/svg">
<path d="M8.30541 3.06775H8.38642C9.1293 3.06773 9.74613 3.06772 10.2475 3.11256C10.7699 3.15929 11.2541 3.26019 11.7025 3.51565C12.2181 3.80942 12.6477 4.23281 12.9471 4.74443C13.2082 5.19084 13.3114 5.67337 13.359 6.19189C13.4046 6.68825 13.4046 7.29833 13.4045 8.03025V8.11297C13.4046 8.84489 13.4046 9.45497 13.359 9.95134C13.3114 10.4699 13.2082 10.9524 12.9471 11.3988C12.6477 11.9104 12.2181 12.3338 11.7025 12.6276C11.2541 12.883 10.7699 12.9839 10.2475 13.0307C9.74613 13.0755 9.12931 13.0755 8.38644 13.0755H8.30539C7.56252 13.0755 6.9457 13.0755 6.44434 13.0307C5.92197 12.9839 5.43773 12.883 4.98935 12.6276C4.47373 12.3338 4.04409 11.9104 3.74476 11.3988C3.48359 10.9524 3.38047 10.4699 3.33285 9.95134C3.28726 9.45497 3.28728 8.84487 3.28729 8.11294V8.03028C3.28728 7.29835 3.28726 6.68826 3.33285 6.19189C3.38047 5.67337 3.48359 5.19084 3.74476 4.74443C4.04409 4.23281 4.47373 3.80942 4.98935 3.51565C5.43773 3.26019 5.92197 3.15929 6.44434 3.11256C6.9457 3.06772 7.56253 3.06773 8.30541 3.06775ZM6.60469 4.90541C6.20498 4.94116 6.01104 5.0052 5.88041 5.07962C5.6374 5.21808 5.43707 5.41637 5.2984 5.65339C5.22529 5.77836 5.16126 5.96507 5.12531 6.35651C5.08818 6.76078 5.08729 7.28772 5.08729 8.07161C5.08729 8.8555 5.08818 9.38244 5.12531 9.78671C5.16126 10.1782 5.22529 10.3649 5.2984 10.4898C5.43707 10.7269 5.6374 10.9251 5.88041 11.0636C6.01104 11.138 6.20498 11.2021 6.60469 11.2378C7.01634 11.2746 7.55222 11.2755 8.34591 11.2755C9.13961 11.2755 9.67549 11.2746 10.0871 11.2378C10.4869 11.2021 10.6808 11.138 10.8114 11.0636C11.0544 10.9251 11.2548 10.7269 11.3934 10.4898C11.4665 10.3649 11.5306 10.1782 11.5665 9.78671C11.6037 9.38244 11.6045 8.8555 11.6045 8.07161C11.6045 7.28772 11.6037 6.76078 11.5665 6.35651C11.5306 5.96507 11.4665 5.77836 11.3934 5.65339C11.2548 5.41637 11.0544 5.21808 10.8114 5.07962C10.6808 5.0052 10.4869 4.94116 10.0871 4.90541C9.67549 4.86859 9.13961 4.86775 8.34591 4.86775C7.55222 4.86775 7.01634 4.86859 6.60469 4.90541ZM19.9495 3.06775H20.0306C20.7734 3.06773 21.3903 3.06772 21.8916 3.11256C22.414 3.15929 22.8982 3.26019 23.3466 3.51565C23.8622 3.80942 24.2919 4.23281 24.5912 4.74443C24.8524 5.19084 24.9555 5.67337 25.0031 6.19189C25.0487 6.68826 25.0487 7.29836 25.0487 8.03029V8.11293C25.0487 8.84487 25.0487 9.45496 25.0031 9.95134C24.9555 10.4699 24.8524 10.9524 24.5912 11.3988C24.2919 11.9104 23.8622 12.3338 23.3466 12.6276C22.8982 12.883 22.414 12.9839 21.8916 13.0307C21.3903 13.0755 20.7734 13.0755 20.0306 13.0755H19.9495C19.2067 13.0755 18.5898 13.0755 18.0885 13.0307C17.5661 12.9839 17.0819 12.883 16.6335 12.6276C16.1179 12.3338 15.6882 11.9104 15.3889 11.3988C15.1277 10.9524 15.0246 10.4699 14.977 9.95134C14.9314 9.45496 14.9314 8.84487 14.9314 8.11293V8.03029C14.9314 7.29836 14.9314 6.68826 14.977 6.19189C15.0246 5.67337 15.1277 5.19084 15.3889 4.74443C15.6882 4.23281 16.1179 3.80942 16.6335 3.51565C17.0819 3.26019 17.5661 3.15929 18.0885 3.11256C18.5898 3.06772 19.2067 3.06773 19.9495 3.06775ZM18.2488 4.90541C17.8491 4.94116 17.6552 5.0052 17.5246 5.07962C17.2815 5.21808 17.0812 5.41637 16.9425 5.65339C16.8694 5.77836 16.8054 5.96507 16.7694 6.35651C16.7323 6.76078 16.7314 7.28772 16.7314 8.07161C16.7314 8.8555 16.7323 9.38244 16.7694 9.78671C16.8054 10.1782 16.8694 10.3649 16.9425 10.4898C17.0812 10.7269 17.2815 10.9251 17.5246 11.0636C17.6552 11.138 17.8491 11.2021 18.2488 11.2378C18.6605 11.2746 19.1964 11.2755 19.9901 11.2755C20.7837 11.2755 21.3196 11.2746 21.7313 11.2378C22.131 11.2021 22.3249 11.138 22.4556 11.0636C22.6986 10.9251 22.8989 10.7269 23.0376 10.4898C23.1107 10.3649 23.1747 10.1781 23.2107 9.78671C23.2478 9.38244 23.2487 8.8555 23.2487 8.07161C23.2487 7.28772 23.2478 6.76078 23.2107 6.35651C23.1747 5.96507 23.1107 5.77836 23.0376 5.65339C22.8989 5.41637 22.6986 5.21808 22.4556 5.07962C22.3249 5.0052 22.131 4.94116 21.7313 4.90541C21.3196 4.86859 20.7837 4.86775 19.9901 4.86775C19.1964 4.86775 18.6605 4.86859 18.2488 4.90541ZM8.30544 14.5586H8.38639C9.12928 14.5585 9.74612 14.5585 10.2475 14.6034C10.7699 14.6501 11.2541 14.751 11.7025 15.0065C12.2181 15.3002 12.6477 15.7236 12.9471 16.2352C13.2082 16.6817 13.3114 17.1642 13.359 17.6827C13.4046 18.1791 13.4046 18.7891 13.4045 19.5211V19.6038C13.4046 20.3357 13.4046 20.9458 13.359 21.4422C13.3114 21.9607 13.2082 22.4432 12.9471 22.8896C12.6477 23.4012 12.2181 23.8246 11.7025 24.1184C11.2541 24.3738 10.7699 24.4748 10.2475 24.5215C9.74614 24.5663 9.12933 24.5663 8.38648 24.5663H8.30535C7.5625 24.5663 6.94569 24.5663 6.44434 24.5215C5.92197 24.4748 5.43773 24.3738 4.98935 24.1184C4.47374 23.8246 4.04409 23.4012 3.74476 22.8896C3.48359 22.4432 3.38047 21.9607 3.33285 21.4422C3.28726 20.9458 3.28728 20.3357 3.28729 19.6038V19.5211C3.28728 18.7892 3.28726 18.1791 3.33285 17.6827C3.38047 17.1642 3.48359 16.6817 3.74476 16.2352C4.04409 15.7236 4.47374 15.3002 4.98935 15.0065C5.43773 14.751 5.92197 14.6501 6.44434 14.6034C6.94571 14.5585 7.56254 14.5585 8.30544 14.5586ZM6.60469 16.3962C6.20498 16.432 6.01104 16.496 5.88041 16.5704C5.6374 16.7089 5.43707 16.9072 5.2984 17.1442C5.22529 17.2692 5.16126 17.4559 5.12531 17.8473C5.08818 18.2516 5.08729 18.7785 5.08729 19.5624C5.08729 20.3463 5.08818 20.8733 5.12531 21.2775C5.16126 21.669 5.22529 21.8557 5.2984 21.9806C5.43707 22.2177 5.6374 22.416 5.88041 22.5544C6.01104 22.6288 6.20498 22.6929 6.60469 22.7286C7.01634 22.7654 7.55222 22.7663 8.34591 22.7663C9.1396 22.7663 9.67549 22.7654 10.0871 22.7286C10.4869 22.6929 10.6808 22.6288 10.8114 22.5544C11.0544 22.416 11.2548 22.2177 11.3934 21.9806C11.4665 21.8557 11.5306 21.669 11.5665 21.2775C11.6037 20.8733 11.6045 20.3463 11.6045 19.5624C11.6045 18.7785 11.6037 18.2516 11.5665 17.8473C11.5306 17.4559 11.4665 17.2692 11.3934 17.1442C11.2548 16.9072 11.0544 16.7089 10.8114 16.5704C10.6808 16.496 10.4869 16.432 10.0871 16.3962C9.67549 16.3594 9.13961 16.3586 8.34591 16.3586C7.55222 16.3586 7.01634 16.3594 6.60469 16.3962Z" />
<path d="M17.3605 15.7795C18.022 15.7795 18.5582 16.3087 18.5582 16.9615C18.5582 17.6142 18.022 18.1434 17.3605 18.1434C16.699 18.1434 16.1628 17.6142 16.1628 16.9615C16.1628 16.3087 16.699 15.7795 17.3605 15.7795Z" />
<path d="M20.1551 18.5374C20.8166 18.5374 21.3528 19.0665 21.3528 19.7193C21.3528 20.372 20.8166 20.9012 20.1551 20.9012C19.4936 20.9012 18.9574 20.372 18.9574 19.7193C18.9574 19.0665 19.4936 18.5374 20.1551 18.5374Z" />
<path d="M22.9497 15.7795C23.6112 15.7795 24.1474 16.3087 24.1474 16.9615C24.1474 17.6142 23.6112 18.1434 22.9497 18.1434C22.2882 18.1434 21.752 17.6142 21.752 16.9615C21.752 16.3087 22.2882 15.7795 22.9497 15.7795Z" />
<path d="M17.3605 21.2952C18.022 21.2952 18.5582 21.8243 18.5582 22.4771C18.5582 23.1298 18.022 23.659 17.3605 23.659C16.699 23.659 16.1628 23.1298 16.1628 22.4771C16.1628 21.8243 16.699 21.2952 17.3605 21.2952Z" />
<path d="M22.9497 21.2952C23.6112 21.2952 24.1474 21.8243 24.1474 22.4771C24.1474 23.1298 23.6112 23.659 22.9497 23.659C22.2882 23.659 21.752 23.1298 21.752 22.4771C21.752 21.8243 22.2882 21.2952 22.9497 21.2952Z" />
</svg>
