<svg width="29" height="28" viewBox="0 0 29 28" fill="none" xmlns="http://www.w3.org/2000/svg">
<path fill-rule="evenodd" clip-rule="evenodd" d="M10.051 4.85041C9.46832 4.85041 8.91237 5.09498 8.51862 5.52453L7.62132 6.5034H21.0334L20.1361 5.52453C19.7424 5.09498 19.1864 4.85041 18.6037 4.85041H10.051ZM22.6261 8.30173C22.6078 8.30284 22.5894 8.3034 22.5708 8.3034H6.02762C5.83418 8.62483 5.72993 8.99504 5.72993 9.37536V19.71C5.72993 21.4065 7.10521 22.7817 8.80169 22.7817H19.853C21.5495 22.7817 22.9248 21.4065 22.9248 19.71V9.37536C22.9248 8.99438 22.8202 8.62355 22.6261 8.30173ZM4.87766 6.8349C4.2672 7.53918 3.92993 8.44093 3.92993 9.37536V19.71C3.92993 22.4006 6.11109 24.5817 8.80169 24.5817H19.853C22.5436 24.5817 24.7248 22.4006 24.7248 19.71V9.37536C24.7248 8.40491 24.361 7.46972 23.7053 6.75435L21.463 4.30822C20.7283 3.50675 19.691 3.05042 18.6037 3.05042H10.051C8.96377 3.05042 7.92643 3.50675 7.19174 4.30822L4.94946 6.75435C4.94103 6.76354 4.93265 6.77277 4.92432 6.78204C4.90809 6.79904 4.89253 6.81667 4.87766 6.8349ZM14.3274 11.0496C14.8244 11.0496 15.2274 11.4525 15.2274 11.9496V17.3122L17.058 15.5648C17.4175 15.2216 17.9872 15.2349 18.3304 15.5944C18.6736 15.954 18.6604 16.5236 18.3008 16.8669L14.9488 20.0665C14.601 20.3985 14.0537 20.3985 13.7059 20.0665L10.3539 16.8669C9.99436 16.5236 9.98111 15.954 10.3243 15.5944C10.6675 15.2349 11.2372 15.2216 11.5968 15.5648L13.4274 17.3122V11.9496C13.4274 11.4525 13.8303 11.0496 14.3274 11.0496Z" />
</svg>
