<svg width="56" height="56" viewBox="0 0 56 56" fill="none" xmlns="http://www.w3.org/2000/svg">
<g filter="url(#filter0_d_2038_1015)">
<rect x="3" y="3" width="48" height="48" rx="10.4348" fill="white"/>
<g clip-path="url(#clip0_2038_1015)">
<path d="M26.9999 47.8696C38.5259 47.8696 47.8695 38.5259 47.8695 27C47.8695 15.4741 38.5259 6.13043 26.9999 6.13043C15.474 6.13043 6.13037 15.4741 6.13037 27C6.13037 38.5259 15.474 47.8696 26.9999 47.8696Z" fill="#007AFF"/>
<path d="M23.1738 36.5652C22.4977 36.5652 22.6126 36.3099 22.3794 35.6661L20.3912 29.1229L35.6956 20.0435" fill="#CBD9E8"/>
<path d="M23.1738 36.5652C23.6956 36.5652 23.926 36.3265 24.2173 36.0434L26.9999 33.3377L23.529 31.2446" fill="#AFC9DE"/>
<path d="M23.5286 31.2452L31.939 37.459C32.8989 37.9885 33.5914 37.7143 33.8305 36.568L37.254 20.4353C37.6044 19.0301 36.7183 18.3925 35.8001 18.8094L15.6975 26.5609C14.3253 27.1113 14.3335 27.8769 15.4474 28.2179L20.6062 29.8282L32.5493 22.2934C33.1131 21.9515 33.6307 22.1351 33.206 22.5122" fill="white"/>
</g>
</g>
<defs>
<filter id="filter0_d_2038_1015" x="0" y="0" width="56" height="56" filterUnits="userSpaceOnUse" color-interpolation-filters="sRGB">
<feFlood flood-opacity="0" result="BackgroundImageFix"/>
<feColorMatrix in="SourceAlpha" type="matrix" values="0 0 0 0 0 0 0 0 0 0 0 0 0 0 0 0 0 0 127 0" result="hardAlpha"/>
<feOffset dx="1" dy="1"/>
<feGaussianBlur stdDeviation="2"/>
<feComposite in2="hardAlpha" operator="out"/>
<feColorMatrix type="matrix" values="0 0 0 0 0 0 0 0 0 0.478431 0 0 0 0 1 0 0 0 0.25 0"/>
<feBlend mode="normal" in2="BackgroundImageFix" result="effect1_dropShadow_2038_1015"/>
<feBlend mode="normal" in="SourceGraphic" in2="effect1_dropShadow_2038_1015" result="shape"/>
</filter>
<clipPath id="clip0_2038_1015">
<rect width="41.7391" height="41.7391" fill="white" transform="translate(6.13037 6.13043)"/>
</clipPath>
</defs>
</svg>
