<svg width="44" height="44" viewBox="0 0 44 44" fill="none" xmlns="http://www.w3.org/2000/svg">
<rect width="44" height="44" rx="22" fill="#007AFF"/>
<path fill-rule="evenodd" clip-rule="evenodd" d="M12.4 11.2C12.4 10.5373 12.9373 10 13.6 10H24.4C24.7183 10 25.0235 10.1264 25.2486 10.3515L31.2486 16.3515C31.4736 16.5765 31.6 16.8817 31.6 17.2V30.4C31.6 32.3882 29.9883 34 28 34H16C14.0118 34 12.4 32.3882 12.4 30.4V11.2ZM14.8 12.4V30.4C14.8 31.0627 15.3373 31.6 16 31.6H28C28.6628 31.6 29.2 31.0627 29.2 30.4V17.6971L23.903 12.4H14.8Z" fill="white"/>
<path fill-rule="evenodd" clip-rule="evenodd" d="M22 18.4V11.2H24.4V17.2H30.4V19.6H23.2C22.5373 19.6 22 19.0627 22 18.4Z" fill="white"/>
<path fill-rule="evenodd" clip-rule="evenodd" d="M17.2 23.2C17.2 22.5373 17.7373 22 18.4 22H25.6C26.2628 22 26.8 22.5373 26.8 23.2C26.8 23.8627 26.2628 24.4 25.6 24.4H18.4C17.7373 24.4 17.2 23.8627 17.2 23.2Z" fill="white"/>
<path fill-rule="evenodd" clip-rule="evenodd" d="M17.2 28C17.2 27.3373 17.7373 26.8 18.4 26.8H25.6C26.2628 26.8 26.8 27.3373 26.8 28C26.8 28.6627 26.2628 29.2 25.6 29.2H18.4C17.7373 29.2 17.2 28.6627 17.2 28Z" fill="white"/>
</svg>
