<svg width="44" height="44" viewBox="0 0 44 44" fill="none" xmlns="http://www.w3.org/2000/svg">
<rect width="44" height="44" rx="22" fill="#007AFF"/>
<path fill-rule="evenodd" clip-rule="evenodd" d="M15.1991 10.4828H28.8009C29.6559 10.4828 30.3814 10.4827 30.9548 10.5353C31.5336 10.5883 32.1649 10.7077 32.6992 11.0987C33.4331 11.6358 33.9024 12.4604 33.9891 13.3651C34.0522 14.0237 33.8319 14.6266 33.5815 15.1505C33.3334 15.6696 32.9623 16.2923 32.5249 17.0262L23.054 32.9187C22.8329 33.2899 22.4324 33.5173 22 33.5173C21.5676 33.5173 21.1671 33.2899 20.946 32.9187L11.4751 17.0262C11.0377 16.2922 10.6666 15.6696 10.4185 15.1505C10.1681 14.6266 9.94783 14.0237 10.0109 13.3651C10.0976 12.4604 10.5669 11.6358 11.3008 11.0987C11.8351 10.7077 12.4664 10.5883 13.0452 10.5353C13.6186 10.4827 14.3441 10.4828 15.1991 10.4828ZM12.7492 13.0765C12.5812 13.2001 12.4736 13.3892 12.4532 13.5966C12.4533 13.6055 12.4576 13.7289 12.6324 14.0947C12.8261 14.4999 13.1377 15.0253 13.6128 15.8224L20.7734 27.8382V12.9333H15.257C14.3283 12.9333 13.7169 12.9345 13.2693 12.9756C12.8653 13.0126 12.757 13.0721 12.7492 13.0765ZM23.2266 12.9333V27.8382L30.3872 15.8224C30.8623 15.0253 31.1739 14.4999 31.3676 14.0947C31.5424 13.729 31.5467 13.6056 31.5468 13.5966C31.5264 13.3892 31.4188 13.2001 31.2508 13.0765C31.243 13.0721 31.1347 13.0126 30.7307 12.9756C30.2831 12.9345 29.6717 12.9333 28.743 12.9333H23.2266Z" fill="white"/>
</svg>
