<svg width="44" height="44" viewBox="0 0 44 44" fill="none" xmlns="http://www.w3.org/2000/svg">
<rect width="44" height="44" rx="22" fill="#007AFF"/>
<path fill-rule="evenodd" clip-rule="evenodd" d="M10 30C10 26.3181 12.9848 23.3333 16.6667 23.3333H27.3333C31.0152 23.3333 34 26.3181 34 30C34 32.2091 32.2091 34 30 34H14C11.7909 34 10 32.2091 10 30ZM16.6667 26C14.4575 26 12.6667 27.7909 12.6667 30C12.6667 30.7364 13.2636 31.3333 14 31.3333H30C30.7364 31.3333 31.3333 30.7364 31.3333 30C31.3333 27.7909 29.5425 26 27.3333 26H16.6667Z" fill="white"/>
<path fill-rule="evenodd" clip-rule="evenodd" d="M22 12.6667C20.5272 12.6667 19.3333 13.8606 19.3333 15.3333C19.3333 16.8061 20.5272 18 22 18C23.4728 18 24.6667 16.8061 24.6667 15.3333C24.6667 13.8606 23.4728 12.6667 22 12.6667ZM16.6667 15.3333C16.6667 12.3878 19.0545 10 22 10C24.9455 10 27.3333 12.3878 27.3333 15.3333C27.3333 18.2789 24.9455 20.6667 22 20.6667C19.0545 20.6667 16.6667 18.2789 16.6667 15.3333Z" fill="white"/>
</svg>
