<svg width="34" height="14" viewBox="0 0 34 14" fill="none" xmlns="http://www.w3.org/2000/svg">
<path fill-rule="evenodd" clip-rule="evenodd" d="M4.72488 2.59752C5.35291 2.6508 5.98094 2.27782 6.37347 1.80494C6.75944 1.31874 7.01458 0.66603 6.94916 0C6.39309 0.0266412 5.70618 0.372977 5.31366 0.859179C4.95385 1.27878 4.64637 1.95813 4.72488 2.59752ZM12.1949 11.176V0.792583H16.022C17.9977 0.792583 19.3781 2.17793 19.3781 4.20266C19.3781 6.22739 17.9715 7.62605 15.9697 7.62605H13.7781V11.176H12.1949ZM6.94219 2.72409C6.3889 2.69167 5.88406 2.89349 5.47627 3.05651C5.21386 3.16142 4.99164 3.25025 4.82258 3.25025C4.63286 3.25025 4.40146 3.15667 4.14166 3.05159C3.80124 2.91391 3.41203 2.75649 3.00389 2.76405C2.06839 2.77737 1.1983 3.31685 0.720728 4.17603C-0.260575 5.89439 0.46559 8.43863 1.41418 9.83729C1.87867 10.53 2.43474 11.2892 3.16744 11.2626C3.48979 11.2502 3.72167 11.15 3.96164 11.0464C4.23791 10.927 4.52491 10.803 4.97304 10.803C5.40564 10.803 5.68009 10.9238 5.94354 11.0397C6.19404 11.1499 6.4346 11.2558 6.79173 11.2493C7.5506 11.236 8.02817 10.5566 8.49265 9.86393C8.99391 9.1205 9.21418 8.39495 9.24761 8.28485L9.25152 8.27212C9.25072 8.2713 9.24453 8.26842 9.2336 8.26332C9.06603 8.18522 7.78531 7.5883 7.77303 5.98764C7.7607 4.6441 8.78887 3.96339 8.95072 3.85623C8.96058 3.84971 8.96722 3.84531 8.97022 3.84302C8.31602 2.85729 7.29546 2.75073 6.94219 2.72409ZM22.2702 11.2558C23.2646 11.2558 24.187 10.743 24.6057 9.93044H24.6384V11.1759H26.1038V6.00752C26.1038 4.50896 24.9262 3.54321 23.1141 3.54321C21.4328 3.54321 20.1898 4.52228 20.144 5.86766H21.5702C21.6879 5.22827 22.2702 4.80867 23.0683 4.80867C24.0365 4.80867 24.5795 5.26823 24.5795 6.11409V6.68687L22.6038 6.80676C20.7655 6.91998 19.7711 7.68592 19.7711 9.01798C19.7711 10.3634 20.7982 11.2558 22.2702 11.2558ZM22.6945 10.0238C21.8505 10.0238 21.3141 9.61082 21.3141 8.9781C21.3141 8.32539 21.8309 7.94575 22.8188 7.88581L24.5786 7.77258V8.35869C24.5786 9.33109 23.7673 10.0238 22.6945 10.0238ZM30.9661 11.5824C30.3315 13.4006 29.6054 14.0001 28.0615 14.0001C27.9437 14.0001 27.5512 13.9868 27.4596 13.9601V12.7146C27.5577 12.728 27.7998 12.7413 27.9241 12.7413C28.6241 12.7413 29.0166 12.4416 29.2586 11.6623L29.4026 11.2028L26.7203 3.64331H28.3755L30.2399 9.77745H30.2727L32.1371 3.64331H33.7465L30.9661 11.5824ZM13.7789 2.15125H15.6042C16.978 2.15125 17.763 2.8972 17.763 4.20928C17.763 5.52136 16.978 6.27397 15.5976 6.27397H13.7789V2.15125Z" fill="white"/>
</svg>
