<svg width="50" height="16" viewBox="0 0 50 16" fill="none" xmlns="http://www.w3.org/2000/svg">
<path d="M8.13135 0C3.71307 0 0.131348 3.58172 0.131348 8C0.131348 12.4183 3.71307 16 8.13135 16C12.5496 16 16.1313 12.4183 16.1313 8C16.1313 3.58172 12.5496 0 8.13135 0ZM11.7443 10.0645C12.3144 10.0645 12.7765 9.60236 12.7765 9.03226V6.96774C12.7765 6.39764 12.3144 5.93548 11.7443 5.93548V6.96774V9.03226V10.0645Z" fill="white"/>
<path fill-rule="evenodd" clip-rule="evenodd" d="M5.03457 3.87097C4.17942 3.87097 3.48619 4.5642 3.48619 5.41935V10.5806C3.48619 11.4358 4.17942 12.129 5.03457 12.129H11.2281C12.0833 12.129 12.7765 11.4358 12.7765 10.5806V9.03226C12.7765 9.60236 12.3144 10.0645 11.7443 10.0645V10.5806C11.7443 10.8657 11.5132 11.0968 11.2281 11.0968H5.03457C4.74952 11.0968 4.51844 10.8657 4.51844 10.5806V5.41935C4.51844 5.13431 4.74952 4.90323 5.03457 4.90323H11.2281C11.5132 4.90323 11.7443 5.13431 11.7443 5.41935V5.93548C12.3144 5.93548 12.7765 6.39764 12.7765 6.96774V5.41935C12.7765 4.5642 12.0833 3.87097 11.2281 3.87097H5.03457Z" fill="#181D25"/>
<path fill-rule="evenodd" clip-rule="evenodd" d="M9.67974 5.93548C9.10964 5.93548 8.64748 6.39764 8.64748 6.96774V9.03226C8.64748 9.60236 9.10963 10.0645 9.67974 10.0645H11.7443V9.03226H9.67974V6.96774H11.7443V5.93548H9.67974Z" fill="#181D25"/>
<path d="M11.2281 8C11.2281 8.28505 10.997 8.51613 10.712 8.51613C10.4269 8.51613 10.1959 8.28505 10.1959 8C10.1959 7.71495 10.4269 7.48387 10.712 7.48387C10.997 7.48387 11.2281 7.71495 11.2281 8Z" fill="#181D25"/>
<path fill-rule="evenodd" clip-rule="evenodd" d="M12.7765 6.96774V9.03226C12.7765 9.60236 12.3144 10.0645 11.7443 10.0645V9.03226V6.96774V5.93548C12.3144 5.93548 12.7765 6.39764 12.7765 6.96774Z" fill="#181D25"/>
<path d="M47.4525 10.4929C46.9561 10.4929 46.5267 10.3874 46.1645 10.1764C45.8044 9.96338 45.5264 9.66721 45.3304 9.28795C45.1343 8.90656 45.0363 8.46444 45.0363 7.9616C45.0363 7.4545 45.1343 7.01132 45.3304 6.63206C45.5264 6.25067 45.8044 5.9545 46.1645 5.74356C46.5267 5.53049 46.9561 5.42396 47.4525 5.42396C47.949 5.42396 48.3772 5.53049 48.7373 5.74356C49.0995 5.9545 49.3787 6.25067 49.5747 6.63206C49.7707 7.01132 49.8687 7.4545 49.8687 7.9616C49.8687 8.46444 49.7707 8.90656 49.5747 9.28795C49.3787 9.66721 49.0995 9.96338 48.7373 10.1764C48.3772 10.3874 47.949 10.4929 47.4525 10.4929ZM47.4589 9.43817C47.6848 9.43817 47.8733 9.37425 48.0246 9.2464C48.1759 9.11643 48.2899 8.93959 48.3666 8.71586C48.4454 8.49214 48.4848 8.23753 48.4848 7.95201C48.4848 7.6665 48.4454 7.41189 48.3666 7.18817C48.2899 6.96444 48.1759 6.7876 48.0246 6.65763C47.8733 6.52765 47.6848 6.46267 47.4589 6.46267C47.2309 6.46267 47.0392 6.52765 46.8836 6.65763C46.7302 6.7876 46.6141 6.96444 46.5353 7.18817C46.4586 7.41189 46.4202 7.6665 46.4202 7.95201C46.4202 8.23753 46.4586 8.49214 46.5353 8.71586C46.6141 8.93959 46.7302 9.11643 46.8836 9.2464C47.0392 9.37425 47.2309 9.43817 47.4589 9.43817Z" fill="white"/>
<path d="M44.4003 5.48788V6.51061H41.444V5.48788H44.4003ZM42.1152 4.31175H43.4767V8.88845C43.4767 9.01416 43.4959 9.11217 43.5342 9.18248C43.5726 9.25067 43.6258 9.29861 43.694 9.32631C43.7643 9.354 43.8453 9.36785 43.9369 9.36785C44.0008 9.36785 44.0647 9.36253 44.1287 9.35187C44.1926 9.33909 44.2416 9.3295 44.2757 9.32311L44.4898 10.3362C44.4216 10.3576 44.3258 10.3821 44.2022 10.4098C44.0786 10.4396 43.9284 10.4577 43.7515 10.4641C43.4234 10.4769 43.1358 10.4332 42.8886 10.3331C42.6436 10.2329 42.4529 10.0774 42.3165 9.86643C42.1802 9.6555 42.113 9.38916 42.1152 9.06743V4.31175Z" fill="white"/>
<path d="M36.0939 12.2379V5.48788H37.4362V6.31246H37.4969C37.5566 6.18035 37.6429 6.04612 37.7558 5.90976C37.8709 5.77126 38.02 5.65621 38.2032 5.56459C38.3886 5.47084 38.6187 5.42396 38.8936 5.42396C39.2515 5.42396 39.5818 5.51771 39.8843 5.70521C40.1869 5.89058 40.4287 6.17076 40.6098 6.54576C40.7909 6.91863 40.8815 7.38632 40.8815 7.94882C40.8815 8.4964 40.7931 8.95876 40.6162 9.33589C40.4415 9.71089 40.2029 9.99534 39.9003 10.1892C39.5999 10.381 39.2633 10.4769 38.8904 10.4769C38.6262 10.4769 38.4014 10.4332 38.216 10.3458C38.0328 10.2585 37.8826 10.1487 37.7654 10.0166C37.6482 9.88241 37.5587 9.74711 37.4969 9.61075H37.4554V12.2379H36.0939ZM37.4266 7.94243C37.4266 8.23433 37.4671 8.48895 37.5481 8.70628C37.629 8.92361 37.7462 9.093 37.8996 9.21444C38.053 9.33376 38.2395 9.39342 38.4589 9.39342C38.6805 9.39342 38.868 9.3327 39.0214 9.21125C39.1748 9.08767 39.291 8.91721 39.3698 8.69988C39.4508 8.48042 39.4912 8.22794 39.4912 7.94243C39.4912 7.65905 39.4518 7.40976 39.373 7.19456C39.2941 6.97936 39.178 6.81103 39.0246 6.68959C38.8712 6.56814 38.6826 6.50741 38.4589 6.50741C38.2373 6.50741 38.0498 6.56601 37.8964 6.68319C37.7451 6.80038 37.629 6.96657 37.5481 7.18177C37.4671 7.39697 37.4266 7.65052 37.4266 7.94243Z" fill="white"/>
<path d="M31.661 12.2379C31.4884 12.2379 31.3265 12.224 31.1752 12.1963C31.026 12.1708 30.9025 12.1377 30.8044 12.0973L31.1113 11.0809C31.2711 11.1299 31.4149 11.1566 31.5427 11.1608C31.6727 11.1651 31.7846 11.1353 31.8783 11.0713C31.9742 11.0074 32.052 10.8987 32.1116 10.7453L32.1915 10.5376L30.4305 5.48788H31.8623L32.8787 9.093H32.9298L33.9557 5.48788H35.3971L33.4891 10.9275C33.3975 11.1917 33.2728 11.4218 33.1152 11.6179C32.9596 11.816 32.7625 11.9684 32.5239 12.0749C32.2853 12.1835 31.9976 12.2379 31.661 12.2379Z" fill="white"/>
<path d="M26.9884 10.397V5.48788H28.3084V6.34442H28.3595C28.449 6.03973 28.5992 5.80961 28.8101 5.65407C29.0211 5.4964 29.264 5.41757 29.5388 5.41757C29.607 5.41757 29.6805 5.42183 29.7593 5.43035C29.8382 5.43888 29.9074 5.45059 29.9671 5.46551V6.67361C29.9032 6.65443 29.8147 6.63738 29.7018 6.62247C29.5889 6.60756 29.4856 6.6001 29.3918 6.6001C29.1915 6.6001 29.0125 6.64378 28.8549 6.73113C28.6993 6.81636 28.5758 6.93568 28.4841 7.08909C28.3946 7.2425 28.3499 7.41934 28.3499 7.61963V10.397H26.9884Z" fill="white"/>
<path d="M26.0216 6.14307H24.6217C24.5962 5.96196 24.544 5.80109 24.4651 5.66047C24.3863 5.51771 24.2851 5.39626 24.1615 5.29612C24.0379 5.19598 23.8952 5.11927 23.7332 5.06601C23.5734 5.01274 23.3998 4.98611 23.2123 4.98611C22.8735 4.98611 22.5784 5.07027 22.327 5.23859C22.0756 5.40479 21.8806 5.64768 21.7421 5.96729C21.6036 6.28476 21.5344 6.67041 21.5344 7.12425C21.5344 7.59086 21.6036 7.98291 21.7421 8.30038C21.8827 8.61785 22.0788 8.85755 22.3302 9.01949C22.5816 9.18142 22.8724 9.26238 23.2027 9.26238C23.3881 9.26238 23.5596 9.23788 23.7173 9.18888C23.8771 9.13987 24.0188 9.06849 24.1423 8.97474C24.2659 8.87886 24.3682 8.76274 24.4492 8.62638C24.5323 8.49001 24.5898 8.33447 24.6217 8.15976L26.0216 8.16615C25.9854 8.46658 25.8948 8.75635 25.7499 9.03547C25.6072 9.31246 25.4144 9.56068 25.1715 9.78014C24.9307 9.99747 24.643 10.1701 24.3085 10.2979C23.9761 10.4236 23.6001 10.4865 23.1803 10.4865C22.5965 10.4865 22.0745 10.3544 21.6143 10.0902C21.1562 9.82595 20.794 9.44349 20.5276 8.94278C20.2634 8.44207 20.1313 7.83589 20.1313 7.12425C20.1313 6.41047 20.2656 5.80322 20.534 5.30251C20.8025 4.8018 21.1668 4.42041 21.6271 4.15834C22.0873 3.89413 22.605 3.76203 23.1803 3.76203C23.5596 3.76203 23.9112 3.8153 24.235 3.92183C24.561 4.02836 24.8497 4.1839 25.1011 4.38845C25.3526 4.59086 25.5571 4.83909 25.7148 5.13312C25.8746 5.42716 25.9769 5.7638 26.0216 6.14307Z" fill="white"/>
</svg>
