<svg width="34" height="14" viewBox="0 0 34 14" fill="none" xmlns="http://www.w3.org/2000/svg">
<path d="M30.5184 8.99375H30.5419L32.5155 4.01231H33.9022L29.6385 13.9996H28.3221L29.9081 10.5064L27.1102 4.01231H28.4969L30.5184 8.99375ZM23.8456 3.78574C24.7887 3.78579 25.5341 4.04385 26.0809 4.55332C26.6278 5.0628 26.8973 5.77485 26.8973 6.67246V10.9508H25.6766V9.98887H25.621C25.09 10.7813 24.3923 11.1773 23.5126 11.1773C22.7675 11.1773 22.133 10.9506 21.6337 10.4977C21.1425 10.0771 20.8649 9.45435 20.8807 8.79941C20.8808 8.07984 21.1507 7.51412 21.6815 7.08555C22.2125 6.65695 22.9257 6.44594 23.8134 6.4459C24.5743 6.4459 25.193 6.59182 25.6844 6.8668V6.56797C25.6844 6.12315 25.4939 5.7019 25.161 5.41074C24.8202 5.1035 24.3842 4.93418 23.9325 4.93418C23.2191 4.93419 22.6562 5.2414 22.244 5.85606L21.119 5.13633C21.7214 4.23861 22.6329 3.78574 23.8456 3.78574ZM17.7977 0.809181C18.614 0.793081 19.4067 1.10877 19.9852 1.69102C21.1422 2.79096 21.2136 4.64284 20.1278 5.83164L19.9852 5.97715C19.3908 6.55131 18.6616 6.84232 17.7977 6.84238H15.6893V10.9508H14.413V0.809181H17.7977ZM24.0126 7.49766C23.4974 7.49768 23.0615 7.62695 22.7128 7.87754C22.3719 8.12822 22.1972 8.44379 22.1971 8.82383C22.1971 9.16345 22.3555 9.47933 22.6171 9.67344C22.9024 9.89987 23.2516 10.0213 23.6083 10.0133C24.1473 10.0133 24.6623 9.79406 25.0428 9.40586C25.4629 9.00158 25.6775 8.52498 25.6776 7.9752C25.2812 7.65169 24.726 7.48957 24.0126 7.49766ZM15.6903 5.59727H17.8309C18.3063 5.61336 18.7658 5.41929 19.0907 5.07188C19.7566 4.36829 19.7412 3.23562 19.0516 2.55625C18.7267 2.23281 18.2906 2.05436 17.8309 2.0543H15.6903V5.59727Z" fill="white"/>
<path d="M11.2828 5.95276C11.2828 5.55647 11.2511 5.16018 11.1877 4.77197H5.80579V7.01224H8.88906C8.76225 7.73203 8.35008 8.37904 7.7477 8.78342V10.2392H9.58657C10.6645 9.22824 11.2828 7.73203 11.2828 5.95276Z" fill="#4285F4"/>
<path d="M5.80587 11.6466C7.34355 11.6466 8.64344 11.1289 9.58665 10.2393L7.74778 8.78355C7.23258 9.1394 6.57471 9.34159 5.80587 9.34159C4.31576 9.34159 3.0555 8.31447 2.6037 6.93958H0.709351V8.44387C1.67634 10.4092 3.64996 11.6466 5.80587 11.6466Z" fill="#34A853"/>
<path d="M2.60483 6.93956C2.367 6.21977 2.367 5.43527 2.60483 4.70739V3.21118H0.710172C-0.106353 4.85296 -0.106353 6.79399 0.710172 8.43577L2.60483 6.93956Z" fill="#FBBC04"/>
<path d="M5.80587 2.30532C6.62227 2.28914 7.40696 2.60456 7.9935 3.17878L9.62629 1.51273C8.58796 0.526045 7.22466 -0.0158232 5.80587 0.00035198C3.64996 0.00035198 1.67634 1.24584 0.709351 3.21113L2.6037 4.71542C3.0555 3.33244 4.31576 2.30532 5.80587 2.30532Z" fill="#EA4335"/>
</svg>
